<?xml version="1.0" encoding="utf-8"?>
<!-- Generator: Adobe Illustrator 27.2.0, SVG Export Plug-In . SVG Version: 6.00 Build 0)  -->
<svg version="1.1" id="Layer_1" xmlns="http://www.w3.org/2000/svg" xmlns:xlink="http://www.w3.org/1999/xlink" x="0px" y="0px"
	 viewBox="0 0 401 103.7" style="enable-background:new 0 0 401 103.7;" xml:space="preserve">
<style type="text/css">
	.st0{fill:#ffffff;}
</style>
<g id="Layer_2_00000155866837663869233220000009901011706222000554_">
	<g id="Layer_1-2">
		<path class="st0" d="M40.6,38.5c-4.3-4.5-7.8-4.1-9.5-3.3s-4.5,2.9-4.5,9.4v14.5c0,6.5,2.8,8.7,4.5,9.4s5.1,1.4,9.5-3.3l7.8-8.4
			l34.4,37c0.7,0.7,1.3,1.5,1.6,2.4c-0.8,0.4-1.7,0.5-2.6,0.5H14.9c-4.8-0.2-8.5-4.2-8.3-9c0,0,0,0,0,0V15.9c-0.2-4.8,3.5-8.8,8.3-9
			h66.8c0.9-0.1,1.8,0.1,2.6,0.5c-0.3,0.9-0.9,1.7-1.6,2.4L59.2,35.1c-0.9,1-0.9,2.5,0,3.5l1.4,1.4c0.8,0.9,2.2,1,3.2,0.2l0.2-0.2
			l23.5-25.3c4.3-4.5,3.8-8.2,3.1-10S87.8,0,81.7,0H14.9C6.4,0.3-0.3,7.4,0,15.9v71.8c-0.3,8.5,6.3,15.7,14.9,16c0,0,0,0,0,0h66.8
			c6.1,0,8.1-3,8.8-4.8s1.2-5.4-3.1-10L40.6,38.5z M43.7,51.8l-7.9,8.5c-0.6,0.7-1.3,1.3-2.1,1.7c-0.3-0.9-0.5-1.9-0.4-2.9V44.5
			c0-1,0.1-1.9,0.4-2.8c0.8,0.4,1.5,1,2.1,1.7L43.7,51.8z"/>
		<path class="st0" d="M146.5,102.9h-12.1l-14.9-18.6v18.6h-9.3V56.7h9.3v18.9l12.8-18.9h11.2l-16,23L146.5,102.9z"/>
		<path class="st0" d="M186.4,56.7h11.1L179.6,82v20.8h-9.3v-21l-17.9-25.1h11.1l11.4,17.5L186.4,56.7z"/>
		<path class="st0" d="M205.5,89.5h9.3c0,3.3,3.3,6,7.6,6s6.9-2.3,6.9-5.5c0-2.6-1.9-4.4-5.7-5.6l-5.6-1.6
			c-10.1-2.7-11.9-8.8-11.9-12.9c0-8.2,7.1-13.9,15.9-13.9s15.4,5.3,15.4,14h-9.5c0-3.2-2.5-5.7-5.7-5.8c0,0,0,0,0,0
			c-0.2,0-0.4,0-0.6,0c-3.2-0.3-6.1,2.1-6.4,5.4v0.1c0,1.2,0.3,3.5,5.2,4.9l5.2,1.5c7,2.1,13.1,5.6,13.1,13.4
			c0,9.2-7.8,14.2-16.6,14.2C212.2,103.7,205.5,97.6,205.5,89.5z"/>
		<path class="st0" d="M253.8,102.9V56.7h9.3v46.2H253.8z"/>
		<path class="st0" d="M311.5,56.7V65h-12.7v37.9h-9.3V65h-12.7v-8.3H311.5z"/>
		<path class="st0" d="M334.5,94.6h20.2v8.2h-29.5V56.7h28.9V65h-19.6v11h17.2v8.4h-17.2V94.6z"/>
		<path class="st0" d="M367.7,89.5h9.4c0,3.3,3.3,6,7.6,6s6.9-2.3,6.9-5.5c0-2.6-1.9-4.4-5.8-5.6l-5.6-1.6
			c-10.2-2.7-11.9-8.8-11.9-12.9c0-8.2,7.1-13.9,15.9-13.9s15.4,5.3,15.4,14h-9.3c0-3.2-2.5-5.7-5.7-5.8c0,0,0,0,0,0
			c-0.2,0-0.4,0-0.6,0c-3.2-0.3-6.1,2.1-6.4,5.3c0,0,0,0.1,0,0.1c0,1.2,0.3,3.5,5.2,4.9l5.1,1.5c7,2.1,13.1,5.6,13.1,13.4
			c0,9.2-7.8,14.2-16.5,14.2C374.5,103.7,367.7,97.6,367.7,89.5z"/>
		<path class="st0" d="M130.4,22.5c0,4.2-3.1,8.2-8.6,8.2h-11.9v-29h11c4.9,0,8,2.9,8,7.4c0,2.4-0.9,5-3.7,6.1
			C128.6,16,130.4,19.3,130.4,22.5z M120.8,5.7h-6.6v8h6.7c2.4,0,3.7-1.7,3.7-4S123.3,5.7,120.8,5.7z M121,26.7
			c3.4,0,5.1-2.1,5.1-4.7c0.1-2.5-1.9-4.6-4.4-4.7c-0.2,0-0.3,0-0.5,0h-7v9.4H121z"/>
		<path class="st0" d="M152.9,20.7v-19h4.3v19c0,4.4,2.9,6.4,6.3,6.4s6.4-2,6.4-6.4v-19h4.3v19c0,6.6-4.9,10.5-10.7,10.5
			S152.9,27.4,152.9,20.7z"/>
		<path class="st0" d="M198.5,30.7v-29h4.3v29L198.5,30.7z"/>
		<path class="st0" d="M231.8,26.7h11.6v4h-16v-29h4.3L231.8,26.7z"/>
		<path class="st0" d="M279.8,1.7v4h-8.6v25h-4.3v-25h-8.6v-4H279.8z"/>
		<path class="st0" d="M354.1,22.5c0,4.2-3.1,8.2-8.6,8.2h-11.9v-29h11c4.9,0,8,2.9,8,7.4c0,2.4-0.9,5-3.7,6.1
			C352.3,16,354.1,19.3,354.1,22.5z M344.5,5.7h-6.6v8h6.7c2.4,0,3.6-1.7,3.6-4S347,5.7,344.5,5.7z M344.7,26.7
			c3.4,0,5.1-2.1,5.1-4.7c0.1-2.5-1.9-4.6-4.4-4.7c-0.2,0-0.3,0-0.5,0h-7v9.4H344.7z"/>
		<path class="st0" d="M393.4,1.7h5.1l-11.1,15.7v13.3H383V17.4L372,1.7h5.1l8.1,11.6L393.4,1.7z"/>
	</g>
</g>
</svg>
