<?xml version="1.0" encoding="UTF-8"?><svg id="Layer_2" xmlns="http://www.w3.org/2000/svg" viewBox="0 0 100.44 67.04"><defs><style>.cls-1{fill:#fff;}</style></defs><g id="Layer_1-2"><path class="cls-1" d="m29.11,12.09c.1-.09.22-.16.34-.2.29-.08.59.1.67.39.02.08.02.16,0,.24-.05-.04-.1-.07-.15-.09-.15-.04-.32,0-.44.1-.18.18.05.46.22.59.19.12.41.19.64.18.76,0,.98-.43.95-.92-.06-.06-.1-.13-.12-.2-.03-.13,0-.25.04-.26s.13.09.17.22c.02.07.02.15,0,.22.17.4.61.61,1.03.49.91-.27.88-.91.75-1.18s-.52-.2-.45.28c-.03-.02-.06-.03-.09-.04-.06-.04-.12-.1-.17-.16-.19-.3-.1-.69.2-.88,0,0,.01,0,.02-.01.13-.03.26-.02.38.03,0,0,.18.06.19.1s-.1-.41.45-.76c.56.36.46.76.46.76,0,0,.15-.08.18-.1.12-.05.26-.07.39-.03.3.18.41.57.23.87,0,0,0,.01-.01.02-.05.06-.11.12-.17.16-.03,0-.06.02-.09.04.08-.48-.31-.55-.44-.28-.13.27-.17.9.74,1.18.42.12.86-.09,1.03-.49-.02-.07-.02-.15,0-.22.04-.13.11-.22.17-.22s.07.13.04.26c-.02.08-.06.15-.12.2,0,.5.2.92.95.92.23,0,.45-.06.64-.18.17-.12.41-.4.22-.59-.12-.1-.29-.14-.44-.1-.06.02-.11.05-.15.09-.06-.3.13-.58.43-.64.08-.02.16-.01.24,0,.13.04.25.11.35.2.22-.25.52-.41.85-.45l-2.13,4.78h-6.76l-2.13-4.78c.33.03.64.19.86.45Z"/><path class="cls-1" d="m41.69,66.96v.04H0v-.49h.64c.64,0,1.27-.16,1.83-.45.36-.04.71-.17,1-.4.39-.28.71-.65.95-1.06.37-.93.54-1.93.48-2.93.04-1.27.08-2.51.1-3.77.05-2.55-.13-52.34-.14-53.26-.05-.95-.39-1.87-.96-2.63-.34-.44-.78-.79-1.27-1.04-.32-.13-.64-.24-.97-.33-.28-.06-.56-.09-.84-.09H.14v-.55h16.2v.49h-.92c-.55.04-1.09.19-1.58.45-1.03.54-1.77,1.5-2.02,2.63,0,.15-.05.28-.07.39v57.64c0,.96-.11,1.91.34,2.77.87,1.68,1.99,1.73,3.69,1.76.85.03,1.7,0,2.55-.06,1.72-.08,3.38-.71,4.72-1.79,2.9-2.18,3.42-6,3.15-9.38h.8v10.22c0,.37.06.74.1,1.11.47-.09.93-.26,1.35-.49.73-.5,1.25-1.25,1.48-2.11.18-.84.13-28.64.04-29.23-.03-.16-.03-.32,0-.48,1.27-.83,2.44-1.81,3.49-2.92.5-.59.97-1.22,1.39-1.87.91-1.32,1.39-2.89,1.37-4.5h.57s0,32.87.07,37.82c-.09.86.11,1.72.57,2.44.94.98,2.24,1.55,3.6,1.59h.64l.03.45Z"/><path class="cls-1" d="m100.44,66.89c-2.1.14-4.2.11-6.29-.1-2.31-.43-4.19-2.12-4.86-4.37-.21-.66-.31-1.34-.3-2.03v-28.97c-.08-3.74-3.01-6.8-6.74-7.05-3.35.38-6.3,3.26-6.31,6.71v1.2c.03,4.84,0,9.68,0,14.52v11.74c0,2.48-.6,5.83,1.91,7.36.62.37,1.34.57,2.06.57h.64v.49h-16.26v-.49h.64c.68,0,1.36-.18,1.95-.51.33-.19.64-.42.9-.69.74-.87,1.14-1.98,1.13-3.12.05-.94.06-10.35.08-18.2v-10.85c1.27-.83,2.44-1.81,3.49-2.92.5-.59.97-1.22,1.39-1.87.28-.4.52-.83.72-1.27.35-.8.56-1.64.64-2.51,0-.23.03-.45.03-.68h.46v4.53c.12-.23.27-.44.43-.64,2.03-4.2,7.22-4.17,11.18-3.69,4.68.79,8.33,5.25,8.41,9.96.1,9.61,0,19.22.06,28.83,0,.05,0,.1,0,.15,0,.11.04.25.08.39.23,1.1.93,2.04,1.91,2.59.59.33,1.26.5,1.94.5h.64l.07.41Z"/><path class="cls-1" d="m65.91,34.38c0-5.28-4.11-10.01-9.4-10.44-1.78-.13-3.56-.1-5.33.08-5.18.55-9.18,4.81-9.4,10.02-.04,7.34,0,14.66,0,21.98-.09,3.06,1.13,6.02,3.37,8.12,3.28,3.36,8.52,3.29,12.78,2.35,4.51-.93,7.83-5.16,7.99-9.71.04-7.47,0-14.93,0-22.4Zm-.67,22.03c.1,5.05-4.32,9.84-9.45,9.72-3.82.45-7.19-3.06-7.19-6.78-.03-9.3-.03-18.6,0-27.9.02-2.82,1.76-5.35,4.4-6.36,5.56-1.92,12.01,2.74,12.25,8.57.05,7.59,0,15.17,0,22.75Z"/></g></svg>