<?xml version="1.0" encoding="utf-8"?>
<!-- Generator: Adobe Illustrator 27.2.0, SVG Export Plug-In . SVG Version: 6.00 Build 0)  -->
<svg version="1.1" id="Layer_2_00000146474556255701520230000014292786932828433087_"
	 xmlns="http://www.w3.org/2000/svg" xmlns:xlink="http://www.w3.org/1999/xlink" x="0px" y="0px" viewBox="0 0 167.1 49.3"
	 style="enable-background:new 0 0 167.1 49.3;" xml:space="preserve">
<style type="text/css">
	.st0{opacity:1;fill:#FFFFFF;}
</style>
<path class="st0" d="M0,0.4h2.8v20.5h10.4v2.6H0V0.4z"/>
<path class="st0" d="M49.4,0.4h2.8v23.1h-2.8V0.4z"/>
<path class="st0" d="M112.3,12c0,6.7-4.8,12-11.4,12s-11.4-5.3-11.4-12s4.8-12,11.4-12S112.3,5.3,112.3,12z M109.3,12
	c0-4.9-3.4-9.3-8.4-9.3S92.4,7,92.4,12s3.4,9.3,8.4,9.3S109.3,16.9,109.3,12z"/>
<path class="st0" d="M151.9,0.4l12.4,18.5V0.4h2.8v23.1h-2.9L151.8,5v18.5h-2.8V0.4H151.9z"/>
<path class="st0" d="M1.3,43h3v1.2h-3v2h3.3v1.2H0V40h4.5v1.2H1.3C1.3,41.2,1.3,43,1.3,43z"/>
<path class="st0" d="M25.1,43.7c0,2.2-1.5,3.8-3.7,3.8H19V40h2.4C23.6,40,25.1,41.5,25.1,43.7L25.1,43.7z M23.8,43.7
	c0-1.4-0.9-2.5-2.4-2.5h-1.2v5.1h1.2C22.9,46.2,23.8,45.1,23.8,43.7L23.8,43.7z"/>
<path class="st0" d="M40.5,40l2.4,3.8l2.4-3.8h1.2v7.5h-1.3v-5L43,46l-2.3-3.6v5h-1.3V40H40.5L40.5,40z"/>
<path class="st0" d="M68.5,43.7c0,2.2-1.6,3.9-3.8,3.9s-3.8-1.7-3.8-3.9s1.6-3.9,3.8-3.9S68.5,41.5,68.5,43.7z M67.2,43.7
	c0-1.4-1-2.7-2.5-2.7s-2.5,1.2-2.5,2.7s1,2.7,2.5,2.7C66.2,46.4,67.2,45.2,67.2,43.7z"/>
<path class="st0" d="M83.9,40l3.8,5.2v-5.2h1.3v7.5h-1.2L84,42.3v5.2h-1.3v-7.5C82.7,39.9,83.9,39.9,83.9,40z"/>
<path class="st0" d="M109.8,43.7c0,2.2-1.5,3.8-3.7,3.8h-2.4V40h2.4C108.2,40,109.8,41.5,109.8,43.7L109.8,43.7z M108.4,43.7
	c0-1.4-0.9-2.5-2.4-2.5h-1.2v5.1h1.2C107.5,46.2,108.4,45.1,108.4,43.7L108.4,43.7z"/>
<path class="st0" d="M125.4,46.8l-0.9,2.5l-1-0.3l0.8-2.5L125.4,46.8z"/>
<path class="st0" d="M146.9,43.7c0,2.2-1.6,3.9-3.8,3.9s-3.8-1.7-3.8-3.9s1.6-3.9,3.8-3.9S146.9,41.5,146.9,43.7z M145.6,43.7
	c0-1.4-1-2.7-2.5-2.7s-2.5,1.2-2.5,2.7s1,2.7,2.5,2.7S145.6,45.2,145.6,43.7z"/>
<path class="st0" d="M162.4,43.3l2.7-3.4h1.6l-2.9,3.7l3.3,3.8h-1.7l-2.9-3.4v3.4h-1.3V40h1.3L162.4,43.3L162.4,43.3z"/>
</svg>
