<?xml version="1.0" encoding="UTF-8"?><svg id="Layer_2" xmlns="http://www.w3.org/2000/svg" viewBox="0 0 133.07 252.67"><defs><style>.cls-1{fill-rule:evenodd;}</style></defs><g id="Layer_1-2"><path class="cls-1" d="m54.15,169.78c-2.26.96-4.21.56-6.06-.21-1.9,1.35-3.69,2.63-5.45,3.88h-3.96c-.44-.48-.93-1.03-1.48-1.63-.38-2.37.05-4.81.83-7.12.6-1.76,1.99-3.04,3.67-3.94.35-.19.65-.5,1.01-.62,3.63-1.14,5.66-3.8,7.18-7.13.82-1.81,1.54-3.82,3.79-4.95.48,0,1.34-.09,2.16.03.66.09,1.29.44,2.06.72,1.04,2.2,1.61,4.62,1.46,7.11-.28.37-.51.69-.87,1.17,2.36,1.87,4.75,3.36,7.71,4.16.64-1.72-.16-3.57-.93-4.91-3.09-5.37-5.54-11.06-8.44-16.52-.97-1.81-1.69-3.76-2.72-5.54-1.03-1.77-1.44-3.63-1.85-5.61-.34-1.63-.63-3.23-.49-4.84.34-3.98.09-8.11,2.5-11.66.46-3.16,1.88-6.02,3.27-8.8,1.23-2.46,2.63-5.01,5.42-6.33.83-.39,1.3-1.33,1.58-2.49.73-3.04,1.95-5.95,2.92-8.93.19-.57.15-1.22.15-1.84.02-2.22-.1-4.45.05-6.67.09-1.39-.49-2.58-.64-3.87-.17-1.45.37-3.2-.28-4.32-.72-1.26.42-2.84-1-3.74-.23-2.13-.47-4.26-.7-6.42-.49-.49-1.02-1.02-1.55-1.55h-4.62c-5.6,2.87-10.82,5.59-16.09,8.24-2.06,1.04-3.63,2.47-4.77,4.49-.83,1.48-1.85,2.87-2.9,4.19-3.75,4.7-7.04,9.7-10.05,14.89-.74,1.28-1.43,2.61-2.31,3.8-1.71,2.33-1.78,4.86-1.23,7.53.12.59.43,1.2.33,1.75-.47,2.62-.18,5.52-2.5,7.54-.11.09.03.43-.04.61-.08.18-.28.31-.46.48.48.98,1,2-.43,2.91h-2.03c-.29-.41-.78-1.08-1.48-2.06.1-.34.36-1.18.62-2.02-.21-.03-.39-.12-.5-.07-2.14,1-3.73,2.75-5.07,4.53-2.2,2.92-1.88,2.94-6.45,4.88-1.04-.72-2.17-1.51-3.52-2.45.72-.79,1.4-1.41,1.92-2.14,1.47-2.07,3.4-3.77,4.77-5.95,1.16-1.85,2.02-3.85,3.44-5.62,1.14-1.42,2.2-3.24,2.3-5.38.05-1.11.64-2.27,1.23-3.27,2.54-4.35,4.19-9.11,5.6-13.87,1.7-5.72,4.19-10.88,8.03-15.43.96-1.14,1.51-2.62,2.53-3.69,1.18-1.24,2.58-2.34,4.04-3.23,1.85-1.13,3.51-2.57,5.58-3.37.72-.28,1.27-1.1,1.81-1.75,1.63-2,3.62-3.76,5.97-4.64,3.78-1.4,6.72-3.94,9.7-6.51,1.8-1.56,3.88-2.81,5.66-4.08,4.04.07,7.53-1.43,11.2-2.02,3.61-.57,7.31-.31,11.02-1.47.62-1.3,2.14-2.49.72-4.48-.44-.61-.07-1.8-.07-2.73-.49-.06-1.57-5.66-1.89-7.25-.42-2.03-.21-5.33-.37-6.88.91-2.19,1.28-5.06,3.45-7.27,0-1.19,6.5-5.96,7.64-5.4.85,0,2.02-.08,3.17.02.98.09,1.95.37,2.91.62.66.17,1.48.26,1.91.7,2.69,2.76,5.89,5.11,6.87,9.22.19.78.39,1.56.4,2.35.04,3.6-.06,7.2.04,10.8.12,4.3-1.74,7.9-3.77,11.47-.44.77-.95,1.5-1.5,2.36,1.89,1.62,4.08,2.34,6.28,3.15,4.3,1.58,8.25,3.83,11.17,7.47.77.96,1.2,2.25,1.58,3.46.57,1.81,1.21,3.51,2.44,5.05.71.89,1.71,2.19.29,3.46.02,4.18-.3,8.37,1.6,12.36,1.77,3.7,3.06,7.63,4.95,11.29.31.6.41,1.35.42,2.04.04,3.06.02,6.13.02,9.23-1.32,1.78-2.65,3.57-3.92,5.28-3.64-.03-6.41-2.19-7.55-5.45-.75-2.15-.77-4.45-1.81-6.55-.95-1.92-1.29-4.12-2.08-6.12-.84-2.13-1.16-4.39-1.77-6.57-.4-1.44-.6-2.93-.97-4.79-.84,1.53-1.77,2.72-2.15,4.07-.31,1.09-.83,1.98-1.3,2.97-2.06,4.23-3.63,8.66-5.12,13.12-.47,1.4-.66,2.93-1.33,4.21-.83,1.58-.93,3.33-1.1,4.91-.45,4.11-1.13,8.24-.78,12.43.13,1.58.04,3.17.02,4.76-.03,1.63.04,3.21-.55,4.84-.54,1.48-.17,3.16-.57,4.82-.56,2.3-.14,4.84-.14,7.35-.6.72-1.11,1.44-1.38,2.54-.54,2.25-1.69,4.38-2.65,6.5-3.36,7.4-6.95,14.7-10.63,21.95-1.17,2.3-2.74,4.46-4.45,6.39-1.57,1.77-2.53,3.83-3.75,6.17-.08,1.47.2,3.25.54,5.07.33,1.77.18,3.61,1.17,5.26.24.4.33,1.08.16,1.49-1.15,2.83-.54,5.77-.54,8.64,0,1.88-.5,3.63-.7,5.45-.19,1.72.5,3.53-.61,5.15-.15.22,0,.62-.02.94-.21,2.77-.05,5.63-.73,8.29-.82,3.23-.29,6.41-.55,9.6-.15,1.88.37,3.58,1.28,5.19.19.34.54.71.52,1.04-.19,2.89,1.9,4.39,3.62,6.13,1.06,0,2.12,0,2.96,0,.61.31,1.04.54,1.6.83.19.37.46.9.83,1.6v3.94c-1.17,2.96-3.43,3.93-6.14,4.47-2.05.41-3.99,1.34-6.15,1.22-.57.95-1.13.03-1.7,0-.74-.03-1.48,0-2.28,0-1.35-1.55-1.94-3.41-2.16-5.45-.06-.58-.28-1.15-.47-1.71-.99-2.9-.94-6.26-.28-9.62.31-1.57.35-3.23-.18-4.9-.54-1.7-1.15-3.44-.98-5.33.13-1.51.01-3.01-.55-4.52-.52-1.4.08-2.94-.55-4.53-.51-1.28-.37-2.96-.74-4.45-.37-1.46-.05-3.24-.77-4.43-.86-1.42-.18-2.95-1.05-4.37-.64-1.05-.19-2.7-.66-4.14-.59-1.8-.45-3.83-.75-5.74-.22-1.39-1.1-2.82-.55-4.16.71-1.72.48-3.43.58-5.16.09-1.58-.36-2.87-1.2-4.28-1.65-2.76-3.68-5.24-5.5-7.86-.55-.79-1.56-1.24-2.33-1.82Z"/></g></svg>