<?xml version="1.0" encoding="UTF-8"?><svg id="Layer_2" xmlns="http://www.w3.org/2000/svg" viewBox="0 0 176.06 241.39"><g id="Layer_1-2"><path d="m125.54,19.63c.58-3.27.7-7.95-.83-11.43-1.53-3.48-2.65-4.31-4.1-4.72s-5.26.37-5.26.37c0,0-2.44-2.61-5.3-3.52-2.86-.91-7.21.33-7.21.33,0,0-1.53-.46-2.69-.04s-1.16.87-1.86.87-1.08-.5-2.28-.17c-1.2.33-2.19,1.04-1.74,3.85,0,0-1.82,1.49-2.73,4.35-.91,2.86-1.28,4.02-1.33,4.51-.04.5.95,1.16.95,2.11s-.04,1.66-.58,3.23c-.54,1.57-1.78,2.36-1.66,3.23.12.87,1.16,1.04,1.82,1.49.66.46.99.58.84,1.45-.14.87-.43,1.2-.18,1.49.25.29.5.33.46.7-.04.37-.17.46.12.95.29.5.41.54.58,2.19s.91,2.9,3.31,2.73,3.06-.33,3.06-.33c0,0,.33.21.5,1.41s0,2.94,0,2.94l-1.45.99s-2.44-1.12-4.35-1.33c-1.9-.21-6.05-.08-9.15.99-3.11,1.08-5.76,2.9-10.06,3.52-4.31.62-8.78,1.16-11.06,1.04-2.28-.12-4.39-.87-7.95-.87s-10.31,2.32-15.74,3.19c-5.42.87-8.2,1.61-10.68,1.53-2.48-.08-3.52-.08-4.39.29-.87.37-2.82.79-6.5.7s-4.51-.12-5.76.46-5.34,1.66-7.37,1.74c-2.03.08-3.23-.46-3.81,0s-1.57.5-1.04,1.08,2.65,1.37,4.97,1.49c2.32.12,6-.21,6-.21,0,0,.33,1.28,2.03,1.45,1.7.17,3.06.04,3.93.37.87.33,2.03.99,2.03.99,0,0-2.73.66-4.51.75-1.78.08-5.51.62-6.75.66-1.24.04-2.07,0-1.99.41s.08,1.53,2.19,1.74c2.11.21,5.09.5,5.34.58.25.08.46.66,1.99.95,1.53.29,5.96.08,7.7.66,1.74.58,2.4,1.57,4.76,2.24,2.36.66,4.06.17,7.21-.21,3.15-.37,3.31-.87,8.12-.37,4.8.5,8.28.81,14.66.9,6.38.09,10.81-1.03,14.33-1.4,3.52-.37,4.72-.62,6.87-.58,2.15.04,6.29.66,6.29.66,0,0-1.86,3.35-.62,6.42,1.24,3.06,1.99,2.86,2.4,5.84.41,2.98.21,4.97.04,7.74-.17,2.77-1.41,6.21-2.73,9.07-1.33,2.86-2.03,6.34-2.11,7.87-.08,1.53.33,5.47-.17,7.99-.5,2.53-1.86,9.19-2.57,14.12-.7,4.93.75,15.2,2.4,21.04,1.66,5.84,4.43,9.9,4.8,13.37.37,3.48,2.61,6.75,2.61,6.75,0,0-1.16,6-1.33,12.3-.17,6.29.21,8.53-.33,11.64-.54,3.11-1.41,5.67-1.41,5.67,0,0-1.99.17-2.65.83s-1.74,2.82-2.77,3.69c-1.04.87-3.52,1.9-5.96,3.35-2.44,1.45-4.76,2.36-6.21,3.06-1.45.7-3.4,2.32-2.69,4.43.7,2.11,3.69,4.02,8.41,3.93,4.72-.08,5.09-1.7,8.49-2.69,3.4-.99,8.57.21,11.68-.91,3.11-1.12,3.52-2.65,3.52-3.4s-.79-2.15-.79-3.02-.04-2.73-.33-4.27c-.29-1.53-1.9-3.31-1.9-3.31,0,0,1.99-8.74,3.23-12.01,1.24-3.27,3.15-6.67,3.15-6.67,0,0,1.2,1.2,1.74,2.65.54,1.45.25,7.7.25,11.47s-.17,13.91-.17,16.11-1.04,6.63-1.53,7.87c-.5,1.24-1.61,3.19-1.61,3.19,0,0-1.66.62-2.65,1.61s-4.72,5.63-7.41,8.07c-2.69,2.44-5.8,3.52-7.83,5.96-2.03,2.44-1.95,4.31-.99,5.47.95,1.16,3.02,3.35,7,3.89,3.98.54,8.78,0,11.84-2.69,3.06-2.69,3.6-2.98,6.79-4.18,3.19-1.2,5.05-1.95,6.17-3.52,1.12-1.57,0-4.47,0-4.47,0,0,.08-5.51-.62-7.33-.7-1.82-2.19-3.02-2.19-3.02,0,0,2.15-7.41,4.43-14.45,2.28-7.04,3.23-11.3,3.31-15.82.08-4.51-2.11-14.12-2.11-14.12,0,0,.12-1.24-.46-5.3-.58-4.06-1.16-3.77-1.08-11.51.08-7.74-.33-11.26-.08-15.49.25-4.22,1.08-9.52,1.99-12.34.91-2.82,2.41-10.31,1.74-15.78-.66-5.47-3.73-9.19-4.93-12.09-1.2-2.9-3.02-6.79-1.57-10.93,1.45-4.14,2.98-5.47,5.96-13.04,2.98-7.58,2.61-7.16,3.6-8.61.99-1.45,2.44-4.43,2.4-10.52-.04-6.09-.83-7.74-1.08-9.44-.25-1.7-1.04-.95-1.28-3.4-.25-2.44-.17-5.51,1.99-11.35,2.15-5.84,1.86-8.9,2.44-12.17ZM40.4,55.57c-1.78.12-2.73,0-4.35.33-1.61.33-4.18.21-7.25-.29-3.06-.5-4.64-1.08-4.64-1.08,0,0-.04-1.28,2.48-1.66s15.24.75,18.88.83c3.64.08,5.05-.04,5.05-.04,0,0-8.41,1.78-10.19,1.9Zm72.06-21.75c-.66-2.82-.28-7.29-.28-7.29,0,0,.3-.19,1.21-.86.91-.66,1.77-1.55,1.77-1.55,0,0-.22,1.6-.28,2.71-.06,1.1.14,1.02.55,2.37.41,1.35.17,2.62.75,4.47.58,1.85.58,4.58.58,4.58,0,0-3.64-1.63-4.31-4.44ZM175.88,1.77s-.49-.38-.49-1c0,0,.42-.47.6-.21.19.26-.11,1.21-.11,1.21Z"/></g></svg>