<?xml version="1.0" encoding="UTF-8"?><svg id="Layer_2" xmlns="http://www.w3.org/2000/svg" viewBox="0 0 185.69 237.75"><g id="Layer_1-2"><path d="m185.09,30.64c-.33-1.32-.47-2.69-.9-3.97-.59-1.75-1.3-3.47-2.09-5.14-1.64-3.45-4.02-6.31-7.23-8.38-1.43-.93-3.05-1.59-4.64-2.25-1.36-.57-2.79-1.02-4.21-1.43-1.24-.36-2.51-.61-3.78-.88-.74-.16-1.5-.25-2.24-.43-3.18-.78-6.43-.8-9.67-.82-1.74-.01-3.5.06-5.2.54-3.09.88-5.86,2.38-8.36,4.42-2.09,1.71-3.75,3.79-5.35,5.93-1.49,1.98-2.68,4.15-3.52,6.5-.37,1.02-.76,2.03-1.14,3.04-.17.46-.72.61-1.1.26-.29-.27-.54-.61-.75-.95-.71-1.16-1.45-1.32-2.53-.52-.62.46-1.2.95-1.84,1.39-1.14.79-2.46,1.14-3.81,1.14-1.47,0-2.93-.18-4.4-.31-1.51-.13-3.01-.31-4.52-.43-2.15-.17-4.3-.33-6.45-.47-1.77-.12-3.54-.2-5.3-.3-3.07-.17-6.14-.33-9.21-.49-1.96-.1-3.92-.2-5.88-.27-.51-.02-.81-.13-.99-.66-.35-1.05-1.21-1.62-2.18-2.03-.51-.22-1.03-.42-1.52-.67-.94-.47-1.73-.33-2.25.57-.29.5-.6.46-1.01.31-.32-.12-.62-.3-.95-.37-.31-.07-.67-.1-.97-.02-.4.11-.67.08-.81-.34-.07-.22-.15-.44-.21-.67-.43-1.73-.74-3.5-1.31-5.18-.59-1.73-1.31-3.43-2.16-5.04-2.52-4.79-6-8.71-10.82-11.31-1.11-.6-2.36-.94-3.55-1.39h-27.97c-2.97.97-5.37,2.85-7.65,4.9-2.22,1.99-4.01,4.33-5.37,6.96-.98,1.9-1.75,3.92-2.51,5.92-.46,1.2-.78,2.47-1.07,3.73-.23.99-.37,2.01-.45,3.02-.17,2.02-.39,4.04-.35,6.06.03,1.71.36,3.43.65,5.13.22,1.29.5,2.59.89,3.84.46,1.44,1,2.85,1.63,4.23,1.4,3.08,3.12,5.97,5.28,8.59,1.8,2.18,3.91,4.03,6.48,5.23,1.59.74,3.26,1.36,4.94,1.83,1.19.34,2.48.45,3.73.47,2.99.06,5.99.08,8.98,0,2.79-.08,5.58-.29,8.37-.52,1.35-.11,2.71-.31,4.01-.67,2.24-.62,4.37-1.53,6.33-2.82,3.65-2.39,6.3-5.68,8.38-9.45.95-1.73,1.66-3.59,2.44-5.4.28-.64.47-1.31.75-2.1.16.25.3.42.38.61.49,1.27,1.01,2.53,1.41,3.82.26.82.33,1.7.5,2.55.18.9.38,1.79.56,2.69.21,1.02.36,2.05.61,3.07.27,1.12.6,2.22.93,3.33.45,1.51.9,3.02,1.39,4.51.55,1.66,1.1,3.31,1.75,4.93,1.21,3.05,2.01,6.17,1.65,9.48-.07.65-.3,1.29-.42,1.94-.13.66-.31,1.34-.31,2,.01,1.71.06,3.41.19,5.11.12,1.61.47,3.21.53,4.82.04,1.09-.26,2.19-.37,3.29-.18,1.89.21,3.68.93,5.42.52,1.26.96,2.54,1.38,3.84.4,1.23.87,2.39,1.69,3.42.24.3.34.77.36,1.18.15,2.66.19,5.33.44,7.99.11,1.19.51,2.38.96,3.49.44,1.08.02,2.05-.07,3.07-.04.46-.2.92-.26,1.38-.28,1.96-.35,3.97-.84,5.87-1.01,3.89-1.88,7.83-3.66,11.48-1.15,2.35-2.13,4.79-3.27,7.15-.4.83-.96,1.64-1.61,2.29-1.39,1.38-2.33,3.05-3.25,4.73-1.38,2.5-2.63,5.05-3.62,7.74-.7,1.89-1.06,3.84-1.49,5.79-.34,1.55-.82,3.08-1.34,4.58-.82,2.4-2.63,4.23-3.81,6.42-1.32,2.46-2.61,4.94-3.7,7.5-1.27,2.97-2.28,6.05-3.5,9.05-.62,1.53-1.45,2.99-3.12,3.64-.5.2-1.08.31-1.62.3-.96,0-1.91-.18-2.87-.21-1.42-.04-2.85-.09-4.27.01-1.25.09-2.51.29-3.71.63-1.49.43-2.99.92-4.36,1.63-1.97,1.01-3.78,2.34-5.75,3.34-2.22,1.12-4.54,2.06-6.84,3.02-1.53.63-3.11,1.18-4.68,1.71-1.59.53-3.19,1.1-4.83,1.44-.83.17-1.78-.03-2.64-.21-.77-.16-1.81.26-1.83.23-.46.44-.93.87-1.38,1.33-1.07,1.1-2.1,2.25-3.21,3.31-1.31,1.25-2.16,2.74-2.65,4.45-.08.28-.08.59-.08.89,0,1.5.01,2.99-.02,4.49-.01.57.24.94.71,1.18,3.02,1.53,5.39,3.8,7.44,6.45,1.03,1.33,2.21,2.51,3.79,3.15.68.27,1.42.46,2.15.51,1.23.08,2.48,0,3.72.03,2.48.03,4.96.09,7.43.12.32,0,.64-.01.96-.07,1.25-.21,1.89-1.22,1.62-2.48-.3-1.41-1.08-2.31-2.52-2.65-.76-.18-1.49-.5-2.22-.79-.69-.27-.84-.78-.62-1.47.09-.28.04-.7-.11-.94-1.12-1.71-1.2-3.61-1.1-5.55,0-.06.06-.11.13-.24,0,0,0,0,0,0,.08-.24.22-.45.34-.72-.05.1.03-.17.03-.2.03-.13.06-.26.09-.39.04-.2.08-.4.11-.6,0-.06.02-.12.03-.2,0-.03.01-.06.02-.09,0-.03.02-.05.03-.08.03-.08.06-.15.1-.22,0,0,0,0,0,0,0-.09.03-.19.06-.27.02-.09.05-.17.09-.25.12-.45.47-.77.91-.98.65-.3,1.33-.58,2.03-.75.85-.21,1.72-.37,2.58-.41,2.05-.09,4.1-.05,6.15-.16,1.34-.07,2.67-.32,4-.47.85-.1,1.7-.2,2.55-.27,1.78-.15,3.48-.54,5.12-1.26.34-.15.73-.26,1.1-.27,1.05-.03,2.1-.03,3.14,0,1.68.04,3.29-.25,4.91-.7,1.35-.38,2.74-.58,4.1-.89,1.56-.36,3.04-.91,4.38-1.82,1.57-1.06,3.28-1.94,4.78-3.08,2.28-1.74,4.19-3.87,5.97-6.13,1.49-1.89,2.79-3.89,3.88-6.02.95-1.86,1.78-3.78,2.57-5.71.63-1.53,1.06-3.14,1.67-4.69.79-2.04,2.3-3.52,3.99-4.83.69-.54,1.44-1.01,2.09-1.59.71-.63,1.46-.55,2.22-.26,1.47.55,2.91,1.2,4.39,1.72,1.38.49,2.81.86,4.21,1.28,1.1.33,2.19.68,3.3.99,1.13.32,2.26.6,3.39.92,1.18.33,2.35.74,3.55,1.02,1.48.35,2.89,1.04,4.48.92.89-.07,1.79.05,2.68-.03,1.48-.14,2.96-.35,4.43-.57,1.2-.17,2.39-.38,3.59-.59.37-.07.72-.26,1.1-.32,1.21-.22,2.41-.2,3.61.15.69.2,1.41.32,2.12.44.63.11.72.26.51.84-.5,1.4-1.17,2.78-1.41,4.23-.42,2.56-.85,5.15-.18,7.75.07.26.07.55.07.83,0,1.41.48,2.71.92,4.02.36,1.11.78,2.21,1.03,3.34.42,1.97.73,3.97,1.07,5.96.05.31.06.64.06.96,0,2.22,0,4.45,0,6.67,0,.49-.05.98-.11,1.47-.12.96-.22.93-1.16,1.19-.49.14-1.06.59-1.26,1.05-.65,1.47-1.18,3-1.7,4.53-.36,1.06-.67,2.15-.93,3.24-.15.64-.24,1.31-.2,1.96.06.92-.4,1.68-.56,2.52-.16.82-.21,1.68-.15,2.52.02.25.55.64.87.66,1.89.15,3.79.23,5.69.28,2.82.07,5.65-.04,8.46.17,5.32.4,10.64.13,15.96.23,1.23.02,1.64-.36,1.77-1.59.14-1.33-.31-2.38-1.34-3.28-1.18-1.04-2.49-1.66-4.02-1.96-1.3-.25-2.68-2.02-2.72-3.33-.02-.82-.26-1.37-1.13-1.71-.68-.27-1.28-.84-1.81-1.38-.82-.83-1.55-1.75-2.37-2.59.03.02.06.04.09.07-.09-.12-.15-.27-.17-.44-.04-.13-.04-.25-.02-.37-.03-.42-.12-.84-.24-1.26-.13-.18-.19-.37-.19-.57-.01-.03-.02-.07-.04-.1-.13-.1-.28-.32-.5-.68-.3-.5-.81-.65-1.39-.42-.11.04-.24.04-.53.09,0-1.29-.06-2.51.02-3.73.08-1.23.25-2.46.48-3.66.25-1.34.62-2.65.93-3.98.2-.83.39-1.65.59-2.48.13-.56.3-1.11.38-1.67.19-1.35.36-2.7.5-4.06.11-1.08.23-2.17.25-3.25.04-2.54.03-5.09,0-7.63-.01-1.02-.16-2.04-.21-3.06-.03-.7.01-1.41.03-2.11,0-.28.07-.56.05-.83-.1-1.53-.24-3.06-.34-4.59-.04-.64-.06-1.29.02-1.92.18-1.38.01-2.69-.62-3.92-.55-1.07-1.41-1.91-2.5-2.39-1.12-.5-2.31-.83-3.47-1.26-.18-.07-.43-.25-.44-.39-.06-1.08-.86-1.68-1.58-2.23-2.38-1.8-4.77-3.61-7.27-5.23-2.16-1.4-4.48-2.57-6.97-3.33-1.87-.57-3.74-1.11-5.62-1.63-1.92-.54-3.89-.67-5.87-.76-1-.04-2-.19-2.97-.43-.73-.18-1-.63-.65-1.27.23-.42.22-.99.3-1.49.11-.65.12-1.33.34-1.93.18-.49.56-.98.97-1.31,1.82-1.47,3.15-3.26,4.07-5.41.4-.93,1.01-1.77,1.54-2.65,1.24-2.07,2.62-4.06,3.7-6.21,1.41-2.82,2.63-5.74,3.83-8.65.46-1.11.63-2.33.95-3.5.61-2.27.44-4.59.36-6.88-.05-1.39-.43-2.77-.66-4.15-.23-1.42-.63-2.83-.47-4.3.19-1.76-.4-3.36-.96-4.98-.32-.93-.49-1.95-.55-2.94-.09-1.41.01-2.82-.04-4.23-.03-.71.19-1.29.59-1.84,1.37-1.93,2.36-4.04,2.95-6.34.49-1.93.99-3.87,1.52-5.79.32-1.16.75-2.29,1.07-3.45.4-1.47.54-2.98.42-4.5-.05-.65.07-1.26.5-1.73,1.1-1.21,1.49-2.77,2.12-4.2.49-1.11.88-2.26,1.28-3.41.46-1.34.87-2.7,1.33-4.12.09.06.25.14.38.26,1.86,1.75,4.03,3.02,6.4,3.91,1.01.38,2.08.6,3.12.88.96.25,1.92.51,2.9.7.86.17,1.73.25,2.59.36,1.24.16,2.49.3,3.73.48,1.24.18,2.47.45,3.72.57,1.52.15,3.06.27,4.59.24,1.29-.03,2.59-.22,3.86-.46.99-.19,1.99-.48,2.91-.89,1.46-.63,2.88-1.36,4.28-2.12,2.21-1.2,3.94-2.99,5.61-4.82,1.71-1.87,3.04-4.02,4.2-6.27,1.02-1.99,1.97-4.02,2.5-6.21.34-1.38.82-2.74,1.03-4.13.23-1.51.26-3.05.32-4.58.06-1.9-.13-3.78-.59-5.63Zm-60.23,10.02c-.1,1.4-.26,2.8-.39,4.2,0,.06-.03.13-.05.19-.23.72-.45,1.44-.68,2.15-.42,1.28-.72,2.61-1.3,3.81-.95,1.98-1.85,4-3.24,5.74-.35.44-.68.63-1.18.51-1.11-.27-2.22-.56-3.36-.85.06-.17.12-.33.16-.49.14-.57-.19-1.19-.82-1.42-.57-.21-.92.09-1.17.59-.16.32-.39.59-.58.89-.02-.06-.05-.13-.07-.19-.33,0-.74-.12-.99.03-.06.03-.12.07-.17.12-2.22.07-6.77.57-7.89,2.14-.89.41-1.39,1.1-1.49,2.09-.12,1.25-.43,2.41-1.5,3.24-.32.24-.56.65-.71,1.03-.36.9-.7,1.81-.96,2.74-.27.98-.5,1.98-.65,2.98-.32,2.07.26,4.07.61,6.08.3,1.71,1.07,3.33.92,5.12-.02.18.01.41.11.56.32.51.17.98.08,1.52-.11.7-.46.86-1.04.94-.14.02-.27.2-.4.31-.59.47-1.19.54-1.74.05-.67-.61-1.25-1.31-1.87-1.97.61-.33.65-.8.14-1.29-.09-.09-.13-.25-.17-.38-.1-.3-.15-.63-.3-.89-.61-1.03-.68-2.21-.95-3.33-.25-1.04-.31-2.13-.45-3.19,0-.04-.02-.08-.04-.12-.23-.92-.42-1.84-.69-2.75-.31-1.05-.64-2.09-1.03-3.11-.4-1.06-.91-2.08-1.33-3.14-.3-.76-.51-1.56-.78-2.33-.35-.99-.75-1.96-1.07-2.95-.32-.98-.54-1.99-.87-2.96-.45-1.33-.94-2.66-1.47-3.96-.52-1.27-1.07-2.54-1.69-3.76-.86-1.68-1.88-3.28-2.7-4.98-.54-1.13-1.03-2.32-1.01-3.63,0-.19-.07-.38-.1-.57-.1-.63-.31-1.26-.26-1.88.11-1.43-.31-2.77-.56-4.14-.09-.5.24-1.44.68-1.67.94-.5,1.89-.95,3.03-.8.74.1,1.49.11,2.24.15,2.47.12,4.94.31,7.42.33,1.11,0,2.21-.08,3.29.26.16.05.34.03.51.04,2.06.12,4.12.27,6.19.37,1.81.09,3.63-.09,5.41.4,1.3.35,2.64.02,3.98.32,1.73.38,3.55.34,5.33.47.63.04.99.35,1.06.97.02.19.02.38,0,.58-.03.57.24.93.75,1.14.17.07.34.17.5.27,1.36.83,2.68,1.75,4.1,2.45.95.46,1.24,1.11,1.18,2.03Z"/></g></svg>