<?xml version="1.0" encoding="UTF-8"?><svg id="Layer_2" xmlns="http://www.w3.org/2000/svg" viewBox="0 0 113.03 237.21"><g id="Layer_1-2"><path d="m.37,232.44c-.18.96-.48,2.4.72,3.86,1.2,1.46,13.2.94,15.24,0,2.04-.94,1.32-3.62,1.32-3.62,0,0,1.08-.54,2.16-.96,1.08-.42.9-2.22.48-3-.42-.78-.96-2.88-1.26-5.76-.3-2.88-.66-5.82-1.98-8.52-1.32-2.7-1.44-3.54-.36-11.34,1.08-7.8,2.64-10.86,3.36-15.48.72-4.62,0-11.76.54-13.92s1.8-3.42,4.74-7.98c2.94-4.56,4.38-5.76,7.26-9,2.88-3.24,7.38-8.22,7.38-8.22,0,0,5.4.54,7.74,0,2.34-.54,1.98-1.2,2.82-3.66.84-2.46,1.38-6.9,1.74-7.32.36-.42,2.64-.06,3.96.3,1.32.36.96.54,1.86,2.04.9,1.5,1.56,5.16,2.76,6.6,1.2,1.44,6,1.38,6,1.38,0,0,2.04,2.76,4.26,5.22,2.22,2.46,4.92,4.56,6.78,6.84,1.86,2.28,3.36,5.22,5.28,6.78,1.92,1.56,3.9,4.38,4.74,6.84.84,2.46.3,4.98.24,7.86-.06,2.88.12,8.46,1.68,13.38,1.56,4.92,3.24,13.62,3.18,16.08-.06,2.46-1.26,3.18-1.98,5.34-.72,2.16-1.08,5.34-1.2,7.98-.12,2.64-.66,2.28-.9,3.9-.24,1.62-.42,2.16.96,3.18,1.38,1.02,5.04,1.02,5.34,1.62.3.6.12,1.32,1.08,2.28.96.96,3.54,1.08,8.16,1.14,4.62.06,6.66.06,7.92-1.26,1.26-1.32.36-3.18,0-4.92-.36-1.74-1.62-2.76-3.54-4.74-1.92-1.98-4.08-6.12-4.62-7.56s-.24-2.94-1.44-3.72c-1.2-.78-1.5-2.22-1.5-3.12s2.28-11.58,2.88-16.5c.6-4.92.66-9,.3-12.24-.36-3.24-1.98-13.14-2.64-15.72-.66-2.58-2.04-4.68-3.48-10.26-1.44-5.58-3.96-11.22-7.08-17.76-3.12-6.54-5.16-10.5-5.52-11.94s-.06-3.12-.54-4.92-.78-2.16-1.02-2.64c-.24-.48-.48-1.56-1.5-3.78-1.02-2.22-1.62-2.7-3.3-5.22-1.68-2.52-2.82-5.34-3.06-6.9-.24-1.56-.78-2.04-.78-3.3s-1.98-2.4-1.92-5.4c.06-3,.84-3.78.84-3.78,0,0,1.26,2.64,2.7,5.7,1.44,3.06,2.58,5.28,4.32,7.86,1.74,2.58,2.46,2.76,3.6,4.98,1.14,2.22,4.32,1.2,5.82,0,1.5-1.2,1.5-3.9,2.22-6.36.72-2.46.18-4.14,0-6.78-.18-2.64-.18-4.8-.84-10.26-.66-5.46-.96-13.68-1.14-19.44-.18-5.76-2.04-9.12-2.04-9.12l2.04.72-4.02-2.94,2.46.6s-6.06-2.82-8.82-6c-2.76-3.18-3.78-6.1-5.86-12.42-2.08-6.32-3.8-13.44-3.8-13.44,0,0,.18-1.56,0-2.58-.18-1.02-.78-1.62-.78-1.62,0,0,1.38-5.52.96-7.8-.42-2.28-1.14-2.34-1.62-3.42-.48-1.08-2.58-4.08-4.92-5.7S56.52-.46,53.94.14c-2.58.6-6.3,3.3-8.58,7.38-2.28,4.08-.54,12-.54,12,0,0-2.04.48-2.46,1.08-.42.6.12,3.78,1.26,6.3,1.14,2.52,3.36,2.4,3.36,2.4,0,0,.12,1.38.42,2.52.3,1.14.54,1.44.54,1.44,0,0,0,.48-.06,2.82-.06,2.34-.66,5.04-1.02,5.52s-4.32,2.16-6.78,3.54c-2.46,1.38-5.16,3.48-7.26,4.5-2.1,1.02-5.34,1.98-8.1,4.02-2.76,2.04-3.54,5.4-3.96,8.7-.42,3.3-.84,11.52-1.2,16.32s-1.98,12.78-2.28,15.84c-.3,3.06.18,7.56.18,8.94s.78,3.36,2.34,4.5c1.56,1.14,3.54,1.02,4.38-.06.84-1.08,3.06-2.64,4.5-4.2,1.44-1.56,8.1-10.26,8.1-9.9s-.9,2.64-2.4,4.38c-1.5,1.74.24,1.98-.72,3.12-.96,1.14-.6,2.46-1.14,3.6-.54,1.14-1.98,2.58-3.24,3.78-1.26,1.2-1.02.9-1.32,2.4-.3,1.5-.84,1.26-1.92,3.06-1.08,1.8-1.44,4.02-1.44,5.4s-1.02.9-1.86,2.16c-.84,1.26-.12,3.48-.12,4.56s-.3,2.16-1.5,4.02c-1.2,1.86-7.8,16.08-9.36,19.44-1.56,3.36-4.92,13.92-5.28,16.86-.36,2.94-1.92,6.18-2.94,12.3-1.02,6.12-.48,11.1.42,15.9s3.24,12.3,3.24,15.66-.12,2.34-1.2,3.54q-1.08,1.2-1.32,2.58c-.24,1.38.12,3.9-.72,6.72s-3.18,4.44-3.77,6.12c-.59,1.68.35,2.1.17,3.06ZM34.45,80.35l-3.9,5.04,2.28-10.14,1.62,5.1Zm43.32-1.62l.96-3.78c0,1.38,1.02,6.96,1.02,6.96l-1.98-3.18Z"/></g></svg>