<?xml version="1.0" encoding="UTF-8"?><svg id="Layer_2" xmlns="http://www.w3.org/2000/svg" viewBox="0 0 533.85 550"><defs><style>.cls-1{fill:none;}.cls-2{fill:#1a1a1a;}</style></defs><g id="Layer_1-2"><rect class="cls-1" width="533.85" height="550"/><g><polygon class="cls-2" points="360.82 152.1 441.92 105.92 441.92 224.16 360.82 177.98 360.82 152.1"/><path class="cls-2" d="m91.93,544.77l-81.1-46.18,81.1-46.18,81.2,46.24c-9.1,5.07-30.38,17.19-81.2,46.13Z"/><path class="cls-2" d="m184,261.01l-5.49,3.13c-.41.23-88.41,50.34-88.41,50.34l-1.83,1.04v130.63L7.18,492.34V152.1l81.1-46.18v130.74l95.72-54.51V51.41L265.1,5.23v340.24l-81.1,46.18v-130.64Z"/><path class="cls-2" d="m268.75,443.98c-.57-.34-1.23-.71-1.96-1.13l-79.04-45.01,81.01-46.13,81.01,46.13-81.01,46.13Z"/><path class="cls-2" d="m360.82,397.9v-124.42c8.68,4.97,29.72,16.95,81.1,46.21v126.47l-81.1,46.18v-94.45Z"/><path class="cls-2" d="m445.58,544.77c-50.82-28.94-72.09-41.05-81.2-46.13l81.2-46.24,81.1,46.18-81.1,46.18Z"/></g></g></svg>